<svg version="1" xmlns="http://www.w3.org/2000/svg" width="666.667" height="666.667" viewBox="0 0 500.000000 500.000000"><path d="M0 250v250h500V0H0v250zm64.1-48.5c3.5 18.3 6.7 32.6 7 31.7.3-.9 3.7-16 7.5-33.5l6.9-31.7H123l.2 69.9.3 69.9 10.9-68.7c6-37.7 11.1-69.2 11.4-69.9.3-.9 5.1-1.2 19.1-1.2h18.7l11.1 71.2 11.1 71.3.1-71.3.1-71.2h24.8c24 0 24.9.1 29.9 2.4 6.2 2.9 12.2 8.7 16.2 15.8 1.7 2.9 3.1 4.6 3.1 3.8 0-1.6-1.6-13.5-2.5-18.8l-.6-3.2h15.6c11.7 0 15.5.3 15.5 1.2 0 .7 2.9 19.2 6.5 41 3.6 21.9 6.5 40.1 6.6 40.5 0 .5 3.3-17.9 7.2-40.7l7.2-41.5 42.3-.3 42.2-.2v32h-25v33h24l-.2 17.7-.3 17.8-11.2.3-11.3.3V300h24v34l-27.2-.2-27.3-.3-.3-76-.4-76-12.8 73c-7.1 40.1-13.2 74.5-13.5 76.2l-.6 3.3h-33.7l-.6-2.8c-.3-1.5-4.2-24.5-8.6-51.2-4.5-26.6-8.3-48.6-8.5-48.9-.3-.2-.5.6-.5 1.8 0 3.4-5.8 20-8.7 25-1.4 2.4-4.2 6.1-6.1 8.3l-3.6 4 10.5 31.5c5.8 17.2 10.3 31.6 10 31.8-.2.3-6.8.5-14.7.5h-14.2l-2.6-6.8c-1.4-3.7-5.9-15.7-10-26.7l-7.5-20-.3 26.5-.3 26.5-29.3.3c-33.2.3-29.8 1.3-31.6-9.2l-1.1-6.1-11.2-.3-11.2-.3-2.3 7.8-2.4 7.8-28.2.3-28.2.2-.2-28.7-.3-28.8-6.4 27c-3.5 14.9-6.8 27.8-7.3 28.7-.7 1.5-2.2 1.8-8.2 1.8-6.8 0-7.4-.2-7.9-2.3-.3-1.2-3.1-13.7-6.2-27.7s-5.8-25.7-6.1-25.9c-.2-.2-.4 12-.4 27.1v27.5l-14.7.6c-8.2.3-15.1.3-15.5 0-.5-.2-.8-37.5-.8-82.9V168h38.6l6.5 33.5zM459 234v66h24v34h-53V168h29v66z"/><path d="M238 222.5V247l2.8-.6c9.9-2.4 14.7-10.2 14.6-23.4 0-8.1-2.5-15.3-6.7-19.9-2.1-2.2-7.5-5.1-9.7-5.1-.6 0-1 8.3-1 24.5zM161.6 260.2c-1.5 11.2-3 21.3-3.3 22.5-.5 2.2-.3 2.3 7.2 2.3s7.7-.1 7.2-2.3c-.3-1.2-2-11.3-3.8-22.5-1.9-11.1-3.6-20.2-3.9-20.2-.3 0-1.8 9.1-3.4 20.2z"/></svg>